<?xml version="1.0" encoding="UTF-8" standalone="no"?>
<svg
   xmlns:dc="http://purl.org/dc/elements/1.1/"
   xmlns:cc="http://creativecommons.org/ns#"
   xmlns:rdf="http://www.w3.org/1999/02/22-rdf-syntax-ns#"
   xmlns:svg="http://www.w3.org/2000/svg"
   xmlns="http://www.w3.org/2000/svg"
   id="svg8"
   version="1.1"
   viewBox="0 0 113.01647 27.882736"
   height="27.882736mm"
   width="113.01647mm">
  <defs
     id="defs2" />
  <metadata
     id="metadata5">
    <rdf:RDF>
      <cc:Work
         rdf:about="">
        <dc:format>image/svg+xml</dc:format>
        <dc:type
           rdf:resource="http://purl.org/dc/dcmitype/StillImage" />
        <dc:title></dc:title>
      </cc:Work>
    </rdf:RDF>
  </metadata>
  <g
     transform="translate(37.823404,-80.346493)"
     id="layer1">
    <path
       d="m -35.733836,102.287 q -1.730427,0 -1.730427,-0.91418 v -9.207183 q 0,-2.089572 -0.277521,-3.477179 -0.08162,-0.440769 -0.08162,-0.620342 0,-0.326495 0.604017,-0.522393 0.620342,-0.212222 1.387607,-0.310171 0.783589,-0.09795 1.257008,-0.09795 0.506069,0 0.701966,0.37547 0.212222,0.37547 0.37547,1.09376 l 0.09795,0.424445 q 0.685641,-0.914188 1.828376,-1.550855 1.159059,-0.652991 2.481367,-0.652991 2.187521,0 3.232307,1.142735 1.044786,1.142735 1.044786,3.542478 v 9.860176 q 0,0.91418 -1.763076,0.91418 h -0.799915 q -1.730427,0 -1.730427,-0.91418 v -9.207185 q 0,-0.881538 -0.424444,-1.338632 -0.40812,-0.457094 -1.338633,-0.457094 -0.783589,0 -1.387606,0.522393 -0.604017,0.522393 -0.914188,1.15906 v 9.321458 q 0,0.91418 -1.763077,0.91418 z"
       style="font-style:normal;font-variant:normal;font-weight:normal;font-stretch:normal;font-size:medium;line-height:1.25;font-family:Jaldi;-inkscape-font-specification:Jaldi;letter-spacing:0px;word-spacing:0px;fill:#000000;fill-opacity:1;stroke:none;stroke-width:0.83582896"
       id="path4608" />
    <path
       d="m -19.621272,84.558288 q -0.914188,0 -1.338633,-0.228547 -0.408119,-0.228547 -0.408119,-0.701966 v -2.334444 q 0,-0.473419 0.424444,-0.701966 0.424445,-0.244872 1.322308,-0.244872 h 0.799914 q 0.897863,0 1.322308,0.244872 0.424444,0.228547 0.424444,0.701966 v 2.334444 q 0,0.473419 -0.424444,0.701966 -0.40812,0.228547 -1.322308,0.228547 z m 0,17.728712 q -1.746752,0 -1.746752,-0.91418 V 87.921193 q 0,-0.457094 0.424444,-0.685641 0.424445,-0.228547 1.322308,-0.228547 h 0.799914 q 0.897863,0 1.322308,0.228547 0.424444,0.228547 0.424444,0.685641 v 13.451627 q 0,0.91418 -1.746752,0.91418 z"
       style="font-style:normal;font-variant:normal;font-weight:normal;font-stretch:normal;font-size:medium;line-height:1.25;font-family:Jaldi;-inkscape-font-specification:Jaldi;letter-spacing:0px;word-spacing:0px;fill:#000000;fill-opacity:1;stroke:none;stroke-width:0.83582896"
       id="path4610" />
    <path
       d="m -10.381443,108.22923 q -1.746752,0 -1.746752,-0.62035 0,-0.24487 0.114273,-0.52239 l 1.844701,-4.84846 -4.799487,-14.071965 q -0.01632,-0.09795 -0.0653,-0.261196 -0.04897,-0.179573 -0.04897,-0.261197 0,-0.326496 0.424444,-0.473419 0.424445,-0.163248 1.338633,-0.163248 h 0.946837 q 0.685641,0 1.093761,0.146924 0.424444,0.130598 0.522393,0.457093 l 1.6977774,5.35453 q 0.1632478,0.506068 0.4081196,1.632478 0.2448718,1.110086 0.2938461,1.322308 l 0.1142735,0.555043 h 0.1305983 q 0.016325,-0.114274 0.081624,-0.342821 0.5387179,-2.611965 0.7346153,-3.167008 l 1.6977776,-5.35453 q 0.1142735,-0.34282 0.5223931,-0.473418 0.4244444,-0.130599 1.1100854,-0.130599 h 0.7019657 q 0.8978632,0 1.3059828,0.163248 0.4244444,0.146923 0.4244444,0.473419 0,0.163248 -0.081624,0.522393 l -6.6605121,19.442815 q -0.2122222,0.62035 -1.6161537,0.62035 z"
       style="font-style:normal;font-variant:normal;font-weight:normal;font-stretch:normal;font-size:medium;line-height:1.25;font-family:Jaldi;-inkscape-font-specification:Jaldi;letter-spacing:0px;word-spacing:0px;fill:#000000;fill-opacity:1;stroke:none;stroke-width:0.83582896"
       id="path4612" />
    <path
       d="m 6.8738528,102.4829 q -3.4445295,0 -5.2565806,-2.02427 -1.79572631,-2.024275 -1.79572631,-5.82795 0,-3.78735 1.79572631,-5.795299 1.8120511,-2.007948 5.2565806,-2.007948 3.4445292,0 5.2239312,2.007948 1.795726,1.991624 1.795726,5.795299 0,3.803675 -1.795726,5.82795 -1.779402,2.02427 -5.2239312,2.02427 z m 0,-3.411879 q 1.3712819,0 2.0079485,-1.110085 0.6529914,-1.110085 0.6529914,-3.330256 0,-2.203846 -0.6529914,-3.313931 -0.6366666,-1.110086 -2.0079485,-1.110086 -2.7099142,0 -2.7099142,4.424017 0,2.203846 0.6529914,3.330256 0.6693161,1.110085 2.0569228,1.110085 z"
       style="font-style:normal;font-variant:normal;font-weight:normal;font-stretch:normal;font-size:medium;line-height:1.25;font-family:Jaldi;-inkscape-font-specification:Jaldi;letter-spacing:0px;word-spacing:0px;fill:#000000;fill-opacity:1;stroke:none;stroke-width:0.83582896"
       id="path4614" />
    <path
       d="m 18.790943,102.287 q -1.746752,0 -1.746752,-0.91418 V 81.293331 q 0,-0.473419 0.424444,-0.701966 0.424445,-0.244872 1.322308,-0.244872 h 0.799914 q 1.746752,0 1.746752,0.946838 v 11.476323 l 0.09795,0.03265 3.526154,-5.240256 q 0.228547,-0.34282 0.636666,-0.440769 0.40812,-0.114274 1.12641,-0.114274 h 1.077436 q 1.632479,0 1.632479,0.44077 0,0.228547 -0.277522,0.555042 l -4.015897,5.762649 4.717863,7.476754 q 0.244872,0.40812 0.244872,0.60401 0,0.44077 -1.665128,0.44077 h -1.208034 q -0.701966,0 -1.142735,-0.11427 -0.440769,-0.11427 -0.604017,-0.44077 l -4.048547,-6.676836 -0.09795,0.04897 v 6.268726 q 0,0.91418 -1.746752,0.91418 z"
       style="font-style:normal;font-variant:normal;font-weight:normal;font-stretch:normal;font-size:medium;line-height:1.25;font-family:Jaldi;-inkscape-font-specification:Jaldi;letter-spacing:0px;word-spacing:0px;fill:#000000;fill-opacity:1;stroke:none;stroke-width:0.83582896"
       id="path4616" />
    <path
       d="m 38.543931,102.4829 q -3.444529,0 -5.256581,-2.02427 -1.795726,-2.024275 -1.795726,-5.82795 0,-3.78735 1.795726,-5.795299 1.812052,-2.007948 5.256581,-2.007948 3.44453,0 5.223931,2.007948 1.795726,1.991624 1.795726,5.795299 0,3.803675 -1.795726,5.82795 -1.779401,2.02427 -5.223931,2.02427 z m 0,-3.411879 q 1.371282,0 2.007949,-1.110085 0.652991,-1.110085 0.652991,-3.330256 0,-2.203846 -0.652991,-3.313931 -0.636667,-1.110086 -2.007949,-1.110086 -2.709914,0 -2.709914,4.424017 0,2.203846 0.652991,3.330256 0.669316,1.110085 2.056923,1.110085 z"
       style="font-style:normal;font-variant:normal;font-weight:normal;font-stretch:normal;font-size:medium;line-height:1.25;font-family:Jaldi;-inkscape-font-specification:Jaldi;letter-spacing:0px;word-spacing:0px;fill:#000000;fill-opacity:1;stroke:none;stroke-width:0.83582896"
       id="path4618" />
    <path
       d="m 49.171367,102.287 q -1.746752,0 -1.746752,-0.91418 v -2.677269 q 0,-0.930513 1.746752,-0.930513 h 0.930513 q 0.897863,0 1.305983,0.244872 0.424444,0.228547 0.424444,0.685641 v 2.677269 q 0,0.91418 -1.730427,0.91418 z"
       style="font-style:normal;font-variant:normal;font-weight:normal;font-stretch:normal;font-size:medium;line-height:1.25;font-family:Jaldi;-inkscape-font-specification:Jaldi;letter-spacing:0px;word-spacing:0px;fill:#ea4748;fill-opacity:1;stroke:none;stroke-width:0.83582896"
       id="path4620" />
    <path
       d="m 55.995126,84.558288 q -0.914188,0 -1.338633,-0.228547 -0.408119,-0.228547 -0.408119,-0.701966 v -2.334444 q 0,-0.473419 0.424444,-0.701966 0.424444,-0.244872 1.322308,-0.244872 h 0.799914 q 0.897863,0 1.322308,0.244872 0.424444,0.228547 0.424444,0.701966 v 2.334444 q 0,0.473419 -0.424444,0.701966 -0.40812,0.228547 -1.322308,0.228547 z m 0,17.728712 q -1.746752,0 -1.746752,-0.91418 V 87.921193 q 0,-0.457094 0.424444,-0.685641 0.424444,-0.228547 1.322308,-0.228547 h 0.799914 q 0.897863,0 1.322308,0.228547 0.424444,0.228547 0.424444,0.685641 v 13.451627 q 0,0.91418 -1.746752,0.91418 z"
       style="font-style:normal;font-variant:normal;font-weight:normal;font-stretch:normal;font-size:medium;line-height:1.25;font-family:Jaldi;-inkscape-font-specification:Jaldi;letter-spacing:0px;word-spacing:0px;fill:#ea4748;fill-opacity:1;stroke:none;stroke-width:0.83582896"
       id="path4622" />
    <path
       d="m 66.900083,102.4829 q -1.583504,0 -2.824188,-0.91419 -1.224359,-0.93051 -1.926325,-2.693586 -0.685641,-1.779402 -0.685641,-4.244444 0,-2.367094 0.718291,-4.130171 0.718291,-1.763076 2.089572,-2.709914 1.387607,-0.963162 3.313932,-0.963162 1.730427,0 2.954786,0.897863 v -6.431965 q 0,-0.946838 1.746752,-0.946838 h 0.816239 q 0.897863,0 1.305983,0.244872 0.424444,0.228547 0.424444,0.701966 v 15.818716 q 0,1.354957 0.0653,2.105897 0.08162,0.75094 0.212222,1.485556 0.08162,0.44077 0.08162,0.62034 0,0.3265 -0.620341,0.53872 -0.604018,0.21222 -1.387607,0.31017 -0.767265,0.0979 -1.240684,0.0979 -0.506068,0 -0.71829,-0.3918 -0.195898,-0.39179 -0.359146,-1.14273 l -0.09795,-0.44077 q -0.522393,0.96316 -1.550855,1.5835 -1.028461,0.60402 -2.318119,0.60402 z m 1.273333,-3.526152 q 1.371282,0 2.367094,-1.714103 v -6.480939 q -1.028462,-0.555043 -2.024274,-0.555043 -2.709914,0 -2.709914,4.424017 0,4.326068 2.367094,4.326068 z"
       style="font-style:normal;font-variant:normal;font-weight:normal;font-stretch:normal;font-size:medium;line-height:1.25;font-family:Jaldi;-inkscape-font-specification:Jaldi;letter-spacing:0px;word-spacing:0px;fill:#ea4748;fill-opacity:1;stroke:none;stroke-width:0.83582896"
       id="path4624" />
    <path
       id="path4640"
       style="font-style:normal;font-variant:normal;font-weight:normal;font-stretch:normal;font-size:medium;line-height:1.25;font-family:Jaldi;-inkscape-font-specification:Jaldi;letter-spacing:0px;word-spacing:0px;fill:#ea4748;fill-opacity:1;stroke:none;stroke-width:0.83582896"
       d="m -19.621272,84.558288 c -0.609459,0 -1.05567,-0.07618 -1.338633,-0.228547 -0.272079,-0.152365 -0.408119,-0.386353 -0.408119,-0.701966 v -2.334444 c 0,-0.315613 0.141481,-0.549601 0.424444,-0.701966 0.282963,-0.163248 0.723733,-0.244872 1.322308,-0.244872 h 0.799914 c 0.598575,0 1.039345,0.08162 1.322308,0.244872 0.282963,0.152365 0.424444,0.386353 0.424444,0.701966 v 2.334444 c 0,0.315613 -0.141481,0.549601 -0.424444,0.701966 -0.27208,0.152365 -0.712849,0.228547 -1.322308,0.228547 z" />
  </g>
</svg>
